<?xml version="1.0" encoding="utf-8"?>
<!-- Generator: Adobe Illustrator 19.2.1, SVG Export Plug-In . SVG Version: 6.00 Build 0)  -->
<svg version="1.1" xmlns="http://www.w3.org/2000/svg" xmlns:xlink="http://www.w3.org/1999/xlink" x="0px" y="0px"
	 viewBox="0 0 512 512" style="enable-background:new 0 0 512 512;" xml:space="preserve">
<style type="text/css">
	.st0{display:none;}
	.st1{fill:#FFFFFF;}
</style>
<g id="Layer_2">
	<rect class="st0" width="512" height="512"/>
	<path class="st1" d="M469.8,64.3H41.8c-8.8,0-16-7.2-16-16v-25c0-8.8,7.2-16,16-16h428.1c8.8,0,16,7.2,16,16v25
		C485.8,57.2,478.7,64.3,469.8,64.3z"/>
</g>
<g id="Capa_1">
	<g>
		<path class="st1" d="M453.7,256.1L274,76.3l-8.3-5.5c-6.2-2.5-13.2-2.6-19.4,0l-8.3,5.5L58.2,256.1c-9.9,9.9-9.9,26,0,36
			c9.9,9.9,26.1,9.9,35.9,0l136.4-136.4v324.3h0v0.3c0,13.8,11.2,25,25,25h0.7c13.8,0,25-11.2,25-25v-0.3h0V155.6L417.8,292
			c9.9,9.9,26.1,9.9,36,0C463.6,282.1,463.7,266,453.7,256.1z"/>
	</g>
</g>
</svg>
