<?xml version="1.0" encoding="utf-8"?>
<!-- Generator: Adobe Illustrator 19.2.1, SVG Export Plug-In . SVG Version: 6.00 Build 0)  -->
<svg version="1.1" xmlns="http://www.w3.org/2000/svg" xmlns:xlink="http://www.w3.org/1999/xlink" x="0px" y="0px"
	 viewBox="0 0 512 512" style="enable-background:new 0 0 512 512;" xml:space="preserve">
<style type="text/css">
	.st0{display:none;fill:#FF8B00;}
	.st1{fill:#5E5E5E;}
	.st2{fill:#FFFFFF;}
	.st3{display:none;}
	.st4{fill:none;stroke:#F7F706;stroke-miterlimit:10;}
</style>
<g id="Layer_2">
	<path class="st0" d="M381.8,647.2L381.8,647.2l-153,0c-3.7,0-6.9-2.8-7.3-6.5c-1.8-15.1-7-36.4-22-52c0,0,0,0-0.1-0.1
		c-37.1-31.5-58.4-77.3-58.4-126c0-91,73.7-165,164.3-165s164.3,74,164.3,165c0,49-21.5,95.2-59.1,126.6
		c-14.4,15.1-19.7,36.4-21.4,51.5C388.7,644.5,385.6,647.2,381.8,647.2z"/>
</g>
<g id="Capa_1">
	<g>
		<g>
			<path class="st1" d="M-447.4-456.8V965.8H961.4V-456.8H-447.4z M333.9,290.1c-10.6,11.2-14.5,26.9-15.8,38
				c-0.3,2.7-2.6,4.8-5.4,4.8l-112.9,0c-2.7,0-5.1-2.1-5.4-4.8c-1.3-11.1-5.2-26.8-16.3-38.4c0,0,0,0,0-0.1
				c-27.4-23.2-43.1-57.1-43.1-93c0-67.1,54.4-121.7,121.2-121.7s121.2,54.6,121.2,121.7C377.5,232.8,361.6,266.9,333.9,290.1z"/>
			<path class="st2" d="M316,340.3L316,340.3l-120,0c-2.9,0-5.4-2.2-5.7-5.1c-1.4-11.8-5.5-28.4-17.3-40.6c0,0,0,0,0-0.1
				c-29.1-24.6-45.8-60.4-45.8-98.4c0-71.1,57.8-128.9,128.9-128.9S384.8,124.9,384.8,196c0,38.3-16.9,74.3-46.3,98.9
				c-11.3,11.8-15.4,28.5-16.8,40.3C321.4,338.1,318.9,340.3,316,340.3z M201,328.7l110,0c2.2-13,7.4-29.4,19.7-42.2
				c27.3-22.8,42.7-55.7,42.7-90.5c0-64.7-52.6-117.3-117.3-117.3S138.7,131.3,138.7,196c0,34.8,15.4,67.7,42.2,90.1
				c0.3,0.3,0.7,0.6,0.9,1C193.7,299.7,198.8,315.9,201,328.7z"/>
			<path class="st2" d="M316,375.1H196c-3.2,0-5.8-2.6-5.8-5.8c0-3.2,2.6-5.8,5.8-5.8h120c3.2,0,5.8,2.6,5.8,5.8
				C321.8,372.5,319.2,375.1,316,375.1z"/>
			<path class="st2" d="M316,410H196c-3.2,0-5.8-2.6-5.8-5.8s2.6-5.8,5.8-5.8h120c3.2,0,5.8,2.6,5.8,5.8S319.2,410,316,410z"/>
			<path class="st2" d="M281.1,444.9h-50.3c-3.2,0-5.8-2.6-5.8-5.8s2.6-5.8,5.8-5.8h50.3c3.2,0,5.8,2.6,5.8,5.8
				S284.3,444.9,281.1,444.9z"/>
		</g>
	</g>
</g>
<g id="Layer_3" class="st3">
	<rect x="-1.3" y="-5.7" class="st4" width="513.3" height="517.7"/>
</g>
</svg>
